<?xml version="1.0" encoding="UTF-8"?>
<svg id="Ebene_1" data-name="Ebene 1" xmlns="http://www.w3.org/2000/svg" viewBox="74.16 0 418.61 226.77">
  <defs>
    <style>
      .cls-1 {
        fill: #b4dedf;
      }

      .cls-1, .cls-2, .cls-3, .cls-4 {
        stroke-width: 0px;
      }

      .cls-2 {
        fill: #80caaf;
      }

      .cls-3 {
        fill: #40afd7;
      }

      .cls-4 {
        fill: #1d1d1b;
      }
    </style>
  </defs>
  <g>
    <path class="cls-4" d="m219.33,114.11c0-8.68,6.22-14.84,14.62-14.84s14.62,6.16,14.62,14.84-6.22,14.84-14.62,14.84-14.62-6.16-14.62-14.84Zm26.38,0c0-7.34-5.04-12.32-11.76-12.32s-11.76,4.98-11.76,12.32,5.04,12.32,11.76,12.32,11.76-4.98,11.76-12.32Z"/>
    <path class="cls-4" d="m286.36,114.11c0,8.79-6.22,14.84-14.45,14.84-5.15,0-9.52-2.52-11.87-6.89v17.53h-2.8v-40.1h2.69v6.89c2.3-4.48,6.72-7.11,11.98-7.11,8.23,0,14.45,6.1,14.45,14.84Zm-2.8,0c0-7.34-5.1-12.32-11.82-12.32s-11.76,4.98-11.76,12.32,5.04,12.32,11.76,12.32,11.82-4.98,11.82-12.32Z"/>
    <path class="cls-4" d="m319.74,114.79h-25.14c.28,6.94,5.38,11.65,12.38,11.65,3.7,0,7.11-1.34,9.35-4.09l1.62,1.85c-2.58,3.14-6.61,4.76-11.03,4.76-8.85,0-15.06-6.16-15.06-14.84s5.99-14.84,14-14.84,13.94,6.05,13.94,14.73c0,.22-.06.5-.06.78Zm-25.09-2.18h22.4c-.39-6.33-4.98-10.86-11.2-10.86s-10.75,4.48-11.2,10.86Z"/>
    <path class="cls-4" d="m354.62,111.65v17.08h-2.8v-16.86c0-6.61-3.53-10.08-9.46-10.08-6.89,0-11.09,4.42-11.09,11.37v15.57h-2.8v-29.23h2.69v6.33c1.96-4.09,6.05-6.55,11.59-6.55,7.11,0,11.87,4.2,11.87,12.38Z"/>
    <path class="cls-4" d="m363.7,112.43h14.39v2.52h-14.39v-2.52Z"/>
    <path class="cls-4" d="m414.04,87.18v41.55h-2.74v-6.89c-2.3,4.54-6.72,7.11-11.98,7.11-8.23,0-14.45-6.1-14.45-14.84s6.22-14.84,14.45-14.84c5.21,0,9.58,2.58,11.93,7v-19.1h2.8Zm-2.8,26.94c0-7.34-5.04-12.32-11.76-12.32s-11.76,4.98-11.76,12.32,5.04,12.32,11.76,12.32,11.76-4.98,11.76-12.32Z"/>
    <path class="cls-4" d="m454.97,114.11c0,8.79-6.22,14.84-14.45,14.84-5.15,0-9.52-2.52-11.87-6.89v17.53h-2.8v-40.1h2.69v6.89c2.3-4.48,6.72-7.11,11.98-7.11,8.23,0,14.45,6.1,14.45,14.84Zm-2.8,0c0-7.34-5.1-12.32-11.82-12.32s-11.76,4.98-11.76,12.32,5.04,12.32,11.76,12.32,11.82-4.98,11.82-12.32Z"/>
    <path class="cls-4" d="m492.77,114.11c0,8.79-6.22,14.84-14.45,14.84-5.15,0-9.52-2.52-11.87-6.89v17.53h-2.8v-40.1h2.69v6.89c2.3-4.48,6.72-7.11,11.98-7.11,8.23,0,14.45,6.1,14.45,14.84Zm-2.8,0c0-7.34-5.1-12.32-11.82-12.32s-11.76,4.98-11.76,12.32,5.04,12.32,11.76,12.32,11.82-4.98,11.82-12.32Z"/>
  </g>
  <g>
    <path class="cls-2" d="m185.14,87.92c-10.21-8.46-23.33-13.55-37.63-13.55-32.55,0-58.93,26.34-58.93,58.83,0,9.98,2.49,19.39,6.89,27.62-13.02-10.79-21.31-27.08-21.31-45.29,0-32.49,26.39-58.84,58.93-58.84,22.55,0,42.15,12.65,52.05,31.23Z"/>
    <path class="cls-3" d="m136.04,169.07c9.38-1.6,18.28-6.35,24.96-14.13,15.19-17.69,13.15-44.33-4.58-59.5-5.44-4.66-11.73-7.7-18.28-9.15,11.96-2.04,24.71,1.06,34.65,9.56,17.72,15.17,19.77,41.81,4.58,59.5-10.53,12.26-26.57,17-41.33,13.72Z"/>
    <path class="cls-1" d="m141.91,154.25c-13.14,7.58-29.95,3.08-37.54-10.04-5.26-9.09-4.71-19.94.49-28.26-1.04,6.09-.04,12.56,3.29,18.33,7.59,13.12,24.4,17.62,37.54,10.04,4.04-2.33,7.26-5.52,9.56-9.21-1.33,7.76-5.98,14.9-13.35,19.15Z"/>
  </g>
</svg>